<svg width="199" height="68"  xmlns="http://www.w3.org/2000/svg"><g fill="#000"><path d="M82.1427 49.4881c.3492 0 .6985-.1047 1.0128-.1746v2.4447c-.6286.2445-1.397.3842-2.1653.3842-1.397 0-2.5146-.5588-3.0734-1.7812-1.5017 1.2224-3.3877 1.9907-5.7975 1.9907-2.7939 0-5.3783-1.5366-5.3783-4.7148 0-3.9464 3.6321-5.1339 6.8452-5.1339 1.3271 0 2.7939.1746 3.9814.454v-.5587c0-1.9209-1.397-3.248-4.0163-3.248-2.2701 0-4.1561.5588-5.5181 1.1874v-3.1432c1.2223-.4191 3.4226-1.0128 5.8673-1.0128 4.3306 0 7.0897 2.0605 7.0897 6.7055v5.4831c.0349.8382.5238 1.1176 1.1525 1.1176zm-11.8744-2.0954c0 1.5017 1.3272 2.2701 2.8639 2.2701 1.6414 0 3.213-.5938 4.4354-1.8161v-2.5844c-.943-.1747-2.2352-.3842-3.3179-.3842-1.9208 0-3.9814.5937-3.9814 2.5146zM93.0392 36.1469c1.7113 0 3.3877.3841 4.7148 1.1874v3.1432c-1.1175-.8033-2.6891-1.2922-4.2608-1.2922-2.7241 0-5.4482 1.4319-5.4482 5.064 0 3.4925 2.6543 5.0641 5.4133 5.0641 1.6415 0 3.248-.4889 4.4704-1.1874v3.1781c-1.4669.6985-3.1432 1.0477-5.0641 1.0477-4.0862 0-8.2771-2.4796-8.2771-7.9628-.0349-5.7625 4.3656-8.2421 8.4517-8.2421zM115.426 49.4881c.349 0 .698-.1047 1.013-.1746v2.4447c-.629.2445-1.397.3842-2.166.3842-1.397 0-2.514-.5588-3.073-1.7812-1.502 1.2224-3.388 1.9907-5.798 1.9907-2.794 0-5.378-1.5366-5.378-4.7148 0-3.9464 3.632-5.1339 6.845-5.1339 1.327 0 2.794.1746 3.982.454v-.5587c0-1.9209-1.397-3.248-4.017-3.248-2.27 0-4.156.5588-5.518 1.1874v-3.1432c1.223-.4191 3.423-1.0128 5.868-1.0128 4.33 0 7.089 2.0605 7.089 6.7055v5.4831c.035.8382.559 1.1176 1.153 1.1176zm-11.84-2.0954c0 1.5017 1.327 2.2701 2.864 2.2701 1.642 0 3.213-.5938 4.436-1.8161v-2.5844c-.943-.1747-2.236-.3842-3.318-.3842-1.956 0-3.982.5937-3.982 2.5146zM134.425 29.5112v22.3867h-3.073v-2.4448c-1.188 1.5018-3.004 2.8289-5.868 2.8289-4.645 0-7.613-3.667-7.613-8.1025 0-4.4005 2.968-8.1025 7.613-8.1025 2.689 0 4.471 1.1875 5.518 2.4098v-8.9756h3.423zm-8.347 9.6392c-2.759 0-4.75 2.0605-4.75 5.099 0 3.0035 2.026 5.064 4.75 5.064 2.41 0 4.156-1.5366 4.889-3.213v-3.7369c-.733-1.6764-2.479-3.2131-4.889-3.2131zM145.496 36.1469c6.112 0 8.207 4.9243 7.229 9.3597H141.2c.384 2.7591 3.073 3.9116 5.867 3.9116 1.851 0 3.563-.454 4.855-1.0827v2.9337c-1.397.6635-3.353 1.0477-5.483 1.0477-4.715 0-8.697-2.6892-8.697-8.1025 0-5.553 4.226-8.0675 7.754-8.0675zm.174 2.8288c-2.305 0-4.365 1.3621-4.505 3.9465h8.487c.209-1.3271-.629-3.9465-3.982-3.9465zM156.218 51.8978V36.5659h3.038v1.9209c.838-.943 2.619-2.3399 5.099-2.3399 2.305 0 3.912.9429 4.785 2.4447 1.327-1.3272 3.143-2.4447 5.378-2.4447 4.051 0 5.833 3.0035 5.833 6.1816v9.6042h-3.423v-9.4994c0-1.9907-1.188-3.2131-3.039-3.2131-1.676 0-3.003 1.1176-3.806 2.0606.035.3492.07.6984.07 1.0477v9.6042h-3.423v-9.4994c0-1.9907-1.187-3.2131-3.038-3.2131-1.851 0-3.248 1.3271-4.052 2.3749v10.3376h-3.422v-.0349zM195.438 36.5659H199l-7.194 17.4274c-1.677 3.9814-3.842 5.3434-6.182 5.3434-.663 0-1.327-.1048-2.026-.2445v-2.8987c.524.1746 1.048.2096 1.572.2096 1.676 0 2.899-1.1875 3.807-3.5623l.314-.7684-7.299-15.4716h3.632l5.169 11.5601 4.645-11.595zM71.281 2.6543v8.7311c1.1176-1.1525 2.8638-2.09544 4.9593-2.09544 3.8766 0 6.3213 2.61934 6.3213 6.25154v9.4994H79.139v-9.0454c0-2.4797-1.5367-3.6671-3.5623-3.6671-1.9558 0-3.4226 1.3271-4.2957 2.5495v10.163h-3.4226V2.6543h3.4226zM91.9213 4.22595v5.44823h5.553v3.00352h-5.553v7.0198c0 2.0256.9429 2.6892 2.8987 2.6892 1.1176 0 2.1304-.2095 3.1083-.5937v2.9337c-1.1525.4191-2.6194.6635-4.1211.6635-2.9686 0-5.2736-1.4668-5.2736-5.064v-7.6834h-2.7591V9.63926h2.7591V5.06414l3.3877-.83819zM101.875 25.0409V9.70901h3.038v1.92089c.839-.943 2.62-2.33998 5.099-2.33998 2.305 0 3.912.94298 4.785 2.44468 1.327-1.3271 3.143-2.44468 5.378-2.44468 4.052 0 5.833 3.00348 5.833 6.18168v9.6042h-3.423v-9.5344c0-1.9907-1.187-3.213-3.038-3.213-1.677 0-3.004 1.1175-3.807 2.0605.035.3492.07.6985.07 1.0477v9.6043h-3.423v-9.4995c0-1.9907-1.187-3.213-3.038-3.213-1.851 0-3.248 1.3271-4.051 2.3748v10.3377h-3.423zM134.424 2.6543h-3.422v22.3866h3.422V2.6543zM27.0665.0349245L26.7871 0 0 2.79396V51.8979l26.7871 15.9255 26.7871-15.9255V2.79396L27.0665.0349245zM50.0818 49.9072l-23.2947 13.865-23.29465-13.865V29.7906L26.6823 43.5858l.035 2.5146-15.8907-9.4646-.0349 2.4448 15.9605 9.6042.0349 2.5495-15.9605-9.5344-.0349 2.4447 15.9605 9.6043 16.1351-9.6392V41.665h-.0349v-7.9279l7.1945-4.2957v20.4658h.0349zm-.0349-23.0852l-6.3563 3.737-2.9337 1.7462-14.0396-8.312-.035 2.4447 11.9792 7.0897-.1048.0698-.2445.1397-1.7113 1.0128-9.8836-5.8673-.035 2.4447 7.8231 4.645-1.851 1.2223-.0349.035-5.9022-3.4925-.035 2.4447 3.8767 2.2701-3.9465 2.3749L3.5623 27.1014l23.0851-13.8999L50.0469 26.822zm.0349-2.4097L26.6823 10.6171 3.49245 24.3773V5.9721L26.7871 3.52738 50.0818 5.9721v18.4402z"/></g></svg>
